HIERARCHY
ROOT Root
{
	OFFSET 0.00 0.00 0.00
	CHANNELS 6 Xposition Yposition Zposition Xrotation Yrotation Zrotation
	JOINT L_Femur
	{
		OFFSET 3.93700 0.00000 0.00000
		CHANNELS 3 Xrotation Yrotation Zrotation
		JOINT L_Tibia
		{
			OFFSET 0.00000 -19.24635 0.00000
			CHANNELS 3 Xrotation Yrotation Zrotation
			JOINT L_Foot
			{
				OFFSET 0.00000 -17.00218 -0.00000
				CHANNELS 3 Xrotation Yrotation Zrotation
				JOINT L_Toe
				{
					OFFSET 0.00000 -1.78320 6.65499
					CHANNELS 3 Xrotation Yrotation Zrotation
					End Site
					{
						OFFSET 0.00000 0.00000 2.95275
					}
				}
			}
		}
	}
	JOINT R_Femur
	{
		OFFSET -3.93700 0.00000 0.00000
		CHANNELS 3 Xrotation Yrotation Zrotation
		JOINT R_Tibia
		{
			OFFSET 0.00000 -19.24635 0.00000
			CHANNELS 3 Xrotation Yrotation Zrotation
			JOINT R_Foot
			{
				OFFSET 0.00000 -17.00218 0.00000
				CHANNELS 3 Xrotation Yrotation Zrotation
				JOINT R_Toe
				{
					OFFSET 0.00000 -1.78320 6.65499
					CHANNELS 3 Xrotation Yrotation Zrotation
					End Site
					{
						OFFSET 0.00000 0.00000 2.95275
					}
				}
			}
		}
	}
	JOINT LowerBack
	{
		OFFSET 0.00000 0.03937 0.00000
		CHANNELS 3 Xrotation Yrotation Zrotation
		JOINT Thorax
		{
			OFFSET 0.00000 8.42896 0.00000
			CHANNELS 3 Xrotation Yrotation Zrotation
			JOINT Neck
			{
				OFFSET 0.00000 7.29157 0.00000
				CHANNELS 3 Xrotation Yrotation Zrotation
				JOINT Head
				{
					OFFSET 0.00000 4.22110 0.00000
					CHANNELS 3 Xrotation Yrotation Zrotation
					End Site
					{
						OFFSET 0.00000 4.22110 0.00000
					}
				}
			}
			JOINT L_Collar
			{
				OFFSET 0.00000 7.29157 0.00000
				CHANNELS 3 Xrotation Yrotation Zrotation
				JOINT L_Humerus
				{
					OFFSET 5.90550 0.00000 0.00000
					CHANNELS 3 Xrotation Yrotation Zrotation
					JOINT L_Elbow
					{
						OFFSET 11.59585 0.00000 0.00000
						CHANNELS 3 Xrotation Yrotation Zrotation
						JOINT L_Wrist
						{
							OFFSET 8.38509 0.00000 0.00000
							CHANNELS 3 Xrotation Yrotation Zrotation
							End Site
							{
								OFFSET 3.93700 0.00000 0.00000
							}
						}
					}
				}
			}
			JOINT R_Collar
			{
				OFFSET 0.00000 7.29157 0.00000
				CHANNELS 3 Xrotation Yrotation Zrotation
				JOINT R_Humerus
				{
					OFFSET -5.90550 0.00000 0.00000
					CHANNELS 3 Xrotation Yrotation Zrotation
					JOINT R_Elbow
					{
						OFFSET -11.59585 -0.00000 0.00000
						CHANNELS 3 Xrotation Yrotation Zrotation
						JOINT R_Wrist
						{
							OFFSET -8.38509 -0.00000 0.00000
							CHANNELS 3 Xrotation Yrotation Zrotation
							End Site
							{
								OFFSET -5.41338 0.00000 0.00000
							}
						}
					}
				}
			}
		}
	}
}
MOTION
Frames: 9
Frame Time: 0.008333
 6.0819 38.3335 -10.9432 13.3893 4.5477 0.1414 -20.8816 4.0819 5.2848 27.5423 0.0000 0.0000 -20.4130 11.8790 -8.6477 16.4060 0.0000 0.0000 -17.7106 -11.4048 -3.7695 19.8389 0.0000 0.0000 -24.3994 -23.6800 5.0394 24.5179 0.0000 -0.0000 -16.0253 -1.9663 -4.3442 -4.9532 -2.6870 0.1499 23.2610 -6.6766 6.6501 -19.1071 -7.6483 -1.7357 -2.4370 9.1420 -2.6050 -16.8095 -3.3130 -14.6292 -0.0000 -37.5432 -0.0000 15.9766 6.3148 10.9137 -6.3067 -2.3895 5.3465 -22.9840 -5.0961 13.3919 0.0000 25.6028 -0.0000 -1.3690 -6.8809 -9.5402
 6.0816 38.3327 -10.9429 13.3831 4.5455 0.1355 -20.9016 4.1290 5.3058 27.5851 -0.0000 -0.0000 -20.4121 11.8271 -8.6462 16.3761 0.0000 -0.0000 -17.7038 -11.4058 -3.7624 19.8417 0.0000 -0.0000 -24.3985 -23.6754 5.0387 24.5094 -0.0000 -0.0000 -16.0212 -1.9645 -4.3392 -4.9546 -2.6846 0.1413 23.2512 -6.6728 6.6567 -19.0864 -7.6273 -1.7297 -2.4330 9.1352 -2.6018 -16.7685 -3.3358 -14.6255 0.0000 -37.5189 0.0000 16.0017 6.3558 10.9818 -6.3070 -2.3960 5.3429 -22.9682 -5.1145 13.4137 0.0000 25.5966 0.0000 -1.2293 -6.9157 -9.4876
 6.0806 38.3333 -10.9430 13.3887 4.5482 0.1338 -20.8862 4.0785 5.2947 27.5521 0.0000 0.0000 -20.4108 11.8814 -8.6480 16.4035 0.0000 0.0000 -17.7057 -11.3934 -3.7576 19.8378 -0.0000 -0.0000 -24.3922 -23.6912 5.0457 24.4735 0.0000 -0.0000 -15.9908 -1.9651 -4.3386 -5.0298 -2.6830 0.1379 23.2831 -6.6464 6.6532 -19.0770 -7.6193 -1.7297 -2.4044 9.1402 -2.6100 -16.7438 -3.3485 -14.6260 0.0000 -37.5148 -0.0000 15.9822 6.3614 10.9713 -6.3637 -2.3723 5.4110 -22.8183 -5.1252 13.3029 -0.0000 25.5724 -0.0000 -1.2745 -6.9240 -9.4850
 6.0803 38.3333 -10.9424 13.3843 4.5507 0.1365 -20.8761 4.0721 5.2901 27.5430 0.0000 0.0000 -20.4104 11.8904 -8.6450 16.4138 0.0000 -0.0000 -17.6991 -11.3966 -3.7605 19.8346 -0.0000 -0.0000 -24.3993 -23.6900 5.0446 24.5198 -0.0000 0.0000 -16.0245 -1.9733 -4.3184 -4.9710 -2.6902 0.0815 23.2784 -6.6296 6.6647 -19.0860 -7.5847 -1.7102 -2.4271 9.1424 -2.5945 -16.7366 -3.3518 -14.6048 0.0000 -37.4869 0.0000 15.9706 6.3781 10.9844 -6.2907 -2.3913 5.4119 -22.9356 -5.0895 13.3816 0.0000 25.5078 0.0000 -1.2340 -6.9022 -9.4863
 6.0794 38.3325 -10.9418 13.3860 4.5359 0.1302 -20.8777 4.0915 5.3043 27.5439 0.0000 0.0000 -20.4207 11.8840 -8.6471 16.4060 -0.0000 -0.0000 -17.6966 -11.3794 -3.7475 19.8319 -0.0000 0.0000 -24.3949 -23.6951 5.0525 24.4893 0.0000 -0.0000 -16.0377 -1.9592 -4.3285 -4.9452 -2.6774 0.1000 23.2494 -6.6508 6.6825 -19.0664 -7.5552 -1.7162 -2.4410 9.1388 -2.5871 -16.7403 -3.3566 -14.6265 0.0000 -37.4836 0.0000 16.0013 6.3712 10.9760 -6.2888 -2.4110 5.4155 -22.9468 -5.1043 13.3529 -0.0000 25.5243 -0.0000 -1.2876 -6.9325 -9.3202
 6.0786 38.3328 -10.9411 13.3901 4.5285 0.1292 -20.8782 4.0932 5.3079 27.5412 -0.0000 -0.0000 -20.4224 11.8842 -8.6551 16.4012 0.0000 -0.0000 -17.6985 -11.3750 -3.7427 19.8271 0.0000 0.0000 -24.3937 -23.6961 5.0491 24.4953 -0.0000 0.0000 -16.0534 -1.9597 -4.3408 -4.9416 -2.6800 0.1224 23.2706 -6.6131 6.6599 -19.0791 -7.5648 -1.7101 -2.4317 9.1388 -2.5991 -16.7390 -3.3479 -14.6239 0.0000 -37.4737 0.0000 16.0451 6.3575 10.9729 -6.3865 -2.3554 5.4779 -22.8015 -5.1349 13.2390 0.0000 25.5279 -0.0000 -1.3815 -6.9332 -9.3020
 6.0781 38.3329 -10.9411 13.3910 4.5260 0.1290 -20.8750 4.0828 5.3122 27.5262 0.0000 -0.0000 -20.4265 11.8639 -8.6129 16.4408 0.0000 0.0000 -17.7005 -11.3890 -3.7439 19.8271 -0.0000 0.0000 -24.3936 -23.6809 5.0547 24.4892 -0.0000 -0.0000 -16.0567 -1.9607 -4.3461 -4.9424 -2.6809 0.1243 23.2747 -6.6059 6.6605 -19.0825 -7.5564 -1.7100 -2.4350 9.1409 -2.5996 -16.7241 -3.3489 -14.6178 0.0000 -37.4545 0.0000 16.0557 6.3184 10.9718 -6.3914 -2.3542 5.4844 -22.7789 -5.1403 13.2387 0.0000 25.4954 0.0000 -1.4105 -6.8711 -9.2958
 6.0785 38.3326 -10.9407 13.3895 4.5328 0.1266 -20.8927 4.1017 5.3198 27.5574 0.0000 -0.0000 -20.4254 11.8354 -8.6154 16.4439 -0.0000 -0.0000 -17.6980 -11.4053 -3.7460 19.8266 0.0000 -0.0000 -24.3947 -23.6698 5.0549 24.5103 0.0000 -0.0000 -16.0643 -1.9683 -4.3458 -4.9264 -2.6891 0.1244 23.2676 -6.5927 6.6581 -19.0783 -7.5333 -1.7153 -2.4460 9.1538 -2.6022 -16.7205 -3.3397 -14.6179 0.0000 -37.4826 0.0000 15.8974 6.2857 10.9206 -6.2892 -2.3868 5.4207 -22.9029 -5.1274 13.3524 0.0000 25.4619 -0.0000 -1.2571 -6.8780 -9.2924
 6.0776 38.3334 -10.9406 13.3978 4.5353 0.1276 -20.8790 4.0708 5.3101 27.5199 -0.0000 -0.0000 -20.4211 11.8677 -8.6066 16.4446 -0.0000 0.0000 -17.7020 -11.4007 -3.7455 19.8199 0.0000 0.0000 -24.3883 -23.6775 5.0652 24.4890 -0.0000 0.0000 -16.0374 -1.9712 -4.3510 -4.9986 -2.6896 0.1217 23.3014 -6.5764 6.6696 -19.0751 -7.5045 -1.7272 -2.4082 9.1566 -2.6077 -16.7171 -3.3531 -14.6055 0.0000 -37.4630 0.0000 15.8383 6.3359 10.9148 -6.2440 -2.4073 5.4180 -22.9303 -5.1266 13.3752 0.0000 25.4433 0.0000 -1.2105 -6.8889 -9.2551
